<svg xmlns="http://www.w3.org/2000/svg" xmlns:xlink="http://www.w3.org/1999/xlink" width="40" zoomAndPan="magnify" viewBox="0 0 30 30.000001" height="40" preserveAspectRatio="xMidYMid meet" version="1.0"><defs><clipPath id="265efb4e5c"><path d="M 0.484375 0 L 29.515625 0 L 29.515625 29.03125 L 0.484375 29.03125 Z M 0.484375 0 " clip-rule="nonzero"/></clipPath><clipPath id="be272b3b99"><path d="M 1.425781 0.871094 L 14 0.871094 L 14 14 L 1.425781 14 Z M 1.425781 0.871094 " clip-rule="nonzero"/></clipPath><clipPath id="15dd8b779e"><path d="M 16 0.871094 L 29.007812 0.871094 L 29.007812 14 L 16 14 Z M 16 0.871094 " clip-rule="nonzero"/></clipPath><clipPath id="7a4e37fd56"><path d="M 1.425781 16 L 14 16 L 14 28.453125 L 1.425781 28.453125 Z M 1.425781 16 " clip-rule="nonzero"/></clipPath><clipPath id="2cd33236bb"><path d="M 16 16 L 29.007812 16 L 29.007812 28.453125 L 16 28.453125 Z M 16 16 " clip-rule="nonzero"/></clipPath></defs><g clip-path="url(#265efb4e5c)"><path fill="#ffffff" d="M 0.484375 0 L 29.515625 0 L 29.515625 36.289062 L 0.484375 36.289062 Z M 0.484375 0 " fill-opacity="1" fill-rule="nonzero"/><path fill="#ffffff" d="M 0.484375 0 L 29.515625 0 L 29.515625 29.03125 L 0.484375 29.03125 Z M 0.484375 0 " fill-opacity="1" fill-rule="nonzero"/><path fill="#ffffff" d="M 0.484375 0 L 29.515625 0 L 29.515625 29.03125 L 0.484375 29.03125 Z M 0.484375 0 " fill-opacity="1" fill-rule="nonzero"/></g><g clip-path="url(#be272b3b99)"><path fill="#000000" d="M 11.367188 0.871094 L 3.851562 0.871094 C 2.519531 0.871094 1.425781 1.964844 1.425781 3.296875 L 1.425781 10.808594 C 1.425781 12.140625 2.519531 13.234375 3.851562 13.234375 L 11.367188 13.234375 C 12.699219 13.234375 13.792969 12.140625 13.792969 10.808594 L 13.792969 3.296875 C 13.792969 1.964844 12.699219 0.871094 11.367188 0.871094 Z M 11.367188 0.871094 " fill-opacity="1" fill-rule="nonzero"/></g><g clip-path="url(#15dd8b779e)"><path fill="#000000" d="M 26.582031 0.871094 L 19.070312 0.871094 C 17.738281 0.871094 16.644531 1.964844 16.644531 3.296875 L 16.644531 10.808594 C 16.644531 12.140625 17.738281 13.234375 19.070312 13.234375 L 26.582031 13.234375 C 27.914062 13.234375 29.007812 12.140625 29.007812 10.808594 L 29.007812 3.296875 C 29.007812 1.964844 27.914062 0.871094 26.582031 0.871094 Z M 26.582031 0.871094 " fill-opacity="1" fill-rule="nonzero"/></g><g clip-path="url(#7a4e37fd56)"><path fill="#000000" d="M 11.367188 16.085938 L 3.851562 16.085938 C 2.519531 16.085938 1.425781 17.179688 1.425781 18.511719 L 1.425781 26.027344 C 1.425781 27.359375 2.519531 28.453125 3.851562 28.453125 L 11.367188 28.453125 C 12.699219 28.453125 13.792969 27.359375 13.792969 26.027344 L 13.792969 18.511719 C 13.792969 17.179688 12.699219 16.085938 11.367188 16.085938 Z M 11.367188 16.085938 " fill-opacity="1" fill-rule="nonzero"/></g><g clip-path="url(#2cd33236bb)"><path fill="#000000" d="M 26.582031 16.085938 L 19.070312 16.085938 C 17.738281 16.085938 16.644531 17.179688 16.644531 18.511719 L 16.644531 26.027344 C 16.644531 27.359375 17.738281 28.453125 19.070312 28.453125 L 26.582031 28.453125 C 27.914062 28.453125 29.007812 27.359375 29.007812 26.027344 L 29.007812 18.511719 C 29.007812 17.179688 27.914062 16.085938 26.582031 16.085938 Z M 26.582031 16.085938 " fill-opacity="1" fill-rule="nonzero"/></g></svg>